# xmcd
#
# Track frame offsets:
#	150
#	18365
#	42617
#	62020
#	85502
#	108977
#	128340
#	147530
#	164910
#
# Disc length: 2440 seconds
#
# Revision: 1
# Processed by: cddbd v1.4PL0 Copyright (c) Steve Scherf et al.
# Submitted via: EasyCDDAExtractor 6.2.0.3
#
DISCID=77098609
DTITLE=Adriano Celentano - Soli
DYEAR=1979
DGENRE=National Folk
TTITLE0=Soli
TTITLE1=People
TTITLE2=Pay,Pay,Pay
TTITLE3=Io e te
TTITLE4=Amore no
TTITLE5=Non è
TTITLE6=Stivali e colbacco
TTITLE7=Medley
TTITLE8=Qua la mano
EXTD=
EXTT0=
EXTT1=
EXTT2=
EXTT3=
EXTT4=
EXTT5=
EXTT6=
EXTT7=
EXTT8=
PLAYORDER=
